<?xml version="1.0" encoding="UTF-8"?>
<svg width="283.33" height="283.95" version="1.1" viewBox="0 0 283.33 283.95" xml:space="preserve" xmlns="http://www.w3.org/2000/svg" xmlns:cc="http://creativecommons.org/ns#" xmlns:dc="http://purl.org/dc/elements/1.1/" xmlns:rdf="http://www.w3.org/1999/02/22-rdf-syntax-ns#"><metadata><rdf:RDF><cc:Work rdf:about=""><dc:format>image/svg+xml</dc:format><dc:type rdf:resource="http://purl.org/dc/dcmitype/StillImage"/><dc:title/></cc:Work></rdf:RDF></metadata><defs><clipPath id="clipPath18"><path d="m0 342h1080v-342h-1080z"/></clipPath></defs><g transform="matrix(1.3333 0 0 -1.3333 -48.395 369.97)"><g clip-path="url(#clipPath18)"><g transform="translate(248.79 171)" fill="none"><path d="m0 0c0-58.679-47.568-106.25-106.25-106.25s-106.25 47.568-106.25 106.25 47.569 106.25 106.25 106.25 106.25-47.569 106.25-106.25" fill="none"/></g><g fill="#fff"><g transform="translate(206.06 85.702)"><path d="m0 0c-15.274-11.5-32.235-18.199-50.935-20.402-25.385-2.992-48.845 2.667-70.401 16.317-10.661 6.751-19.499 15.485-27.356 25.293-1.633 2.036-1.653 3.63 0.042 5.663 18.209 21.843 36.353 43.74 54.522 65.615 2.125 2.56 4.453 4.967 6.404 7.65 1.662 2.285 2.891 2.773 4.864 0.318 5-6.222 10.119-12.35 15.272-18.446 1.696-2.006 0.342-3.239-0.722-4.765-12.082-17.332-24.141-34.68-36.172-52.046-5.081-7.333-5.989-15.196-1.71-23.07 4.43-8.151 11.752-11.415 20.913-10.606 7.034 0.622 11.917 4.639 15.776 10.195 9.204 13.254 18.374 26.532 27.607 39.766 3.396 4.869 3.792 4.932 7.249 0.453 9.746-12.628 20.876-24.146 29.864-37.385 1.086-1.6 2.848-2.741 4.783-4.55" fill="#fff" fill-rule="evenodd"/></g><g transform="translate(37.808 154.21)"><path d="m0 0c-6.795 39.168 9.262 83.282 49.657 107.85 41.161 25.039 90.021 17.113 118.49-6.202-10.31-6.191-14.835-17.185-21.705-26.212-5.235-6.88-10.012-14.112-14.906-21.247-1.4-2.039-2.342-2.434-3.903-0.084-9.11 13.72-19.379 26.657-27.906 40.764-7.997 13.229-23.969 13.47-32.819 0.648-17.483-25.326-35.245-50.458-52.902-75.665-4.472-6.382-8.981-12.739-14.002-19.856" fill="#fff" fill-rule="evenodd"/></g><g transform="translate(232.92 226.08)"><path d="m0 0c21-30.049 21.675-80.038-1.089-112.42-5.89 8.38-11.7 16.623-17.484 24.885-6.394 9.132-12.715 18.315-19.187 27.391-1.293 1.813-1.924 3.042-0.396 5.21 12.56 17.814 24.971 35.731 37.422 53.622 0.266 0.381 0.459 0.816 0.734 1.313" fill="#fff" fill-rule="evenodd"/></g></g></g></g></svg>
