<?xml version="1.0" encoding="UTF-8"?>
<svg width="259.06" height="259.63" version="1.1" viewBox="0 0 259.06 259.63" xml:space="preserve" xmlns="http://www.w3.org/2000/svg" xmlns:cc="http://creativecommons.org/ns#" xmlns:dc="http://purl.org/dc/elements/1.1/" xmlns:rdf="http://www.w3.org/1999/02/22-rdf-syntax-ns#"><metadata><rdf:RDF><cc:Work rdf:about=""><dc:format>image/svg+xml</dc:format><dc:type rdf:resource="http://purl.org/dc/dcmitype/StillImage"/><dc:title/></cc:Work></rdf:RDF></metadata><defs><clipPath id="clipPath18"><path d="m0 200h200v-200h-200z"/></clipPath></defs><g transform="matrix(1.3333 0 0 -1.3333 -3.8013 263.15)"><g clip-path="url(#clipPath18)"><g transform="translate(197.15 100)"><path d="m0 0c0-53.654-43.495-97.149-97.149-97.149s-97.149 43.495-97.149 97.149 43.495 97.149 97.149 97.149 97.149-43.495 97.149-97.149" fill="none"/></g><g transform="translate(158.07 22.006)"><path d="m0 0c-13.966-10.515-29.475-16.641-46.573-18.655-23.211-2.735-44.663 2.438-64.373 14.92-9.747 6.173-17.829 14.159-25.013 23.127-1.493 1.861-1.511 3.319 0.039 5.178 16.649 19.972 33.239 39.994 49.853 59.996 1.943 2.341 4.071 4.542 5.855 6.995 1.52 2.09 2.644 2.536 4.448 0.291 4.571-5.689 9.252-11.292 13.963-16.867 1.551-1.834 0.314-2.962-0.659-4.357-11.047-15.847-22.074-31.71-33.075-47.588-4.645-6.706-5.476-13.895-1.563-21.095 4.05-7.453 10.745-10.438 19.122-9.698 6.432 0.568 10.897 4.242 14.425 9.322 8.416 12.119 16.8 24.26 25.242 36.361 3.106 4.451 3.467 4.509 6.629 0.414 8.911-11.547 19.089-22.078 27.306-34.184 0.994-1.462 2.604-2.506 4.374-4.16" fill="#f47c20" fill-rule="evenodd"/></g><g transform="translate(4.232 84.651)"><path d="m0 0c-6.212 35.814 8.469 76.15 45.405 98.618 37.636 22.894 82.312 15.647 108.34-5.671-9.426-5.661-13.565-15.714-19.846-23.967-4.787-6.291-9.154-12.904-13.63-19.428-1.279-1.864-2.141-2.226-3.568-0.076-8.331 12.545-17.72 24.373-25.517 37.273-7.312 12.096-21.915 12.316-30.008 0.591-15.986-23.156-32.227-46.136-48.372-69.184-4.088-5.837-8.212-11.649-12.803-18.156" fill="#f47c20" fill-rule="evenodd"/></g><g transform="translate(182.64 150.37)"><path d="m0 0c19.202-27.476 19.818-73.184-0.997-102.79-5.384 7.663-10.697 15.2-15.986 22.754-5.846 8.35-11.626 16.747-17.544 25.046-1.182 1.657-1.759 2.781-0.362 4.764 11.484 16.288 22.833 32.67 34.218 49.029 0.243 0.349 0.419 0.746 0.671 1.201" fill="#f47c20" fill-rule="evenodd"/></g></g></g></svg>
