<svg version="1" xmlns="http://www.w3.org/2000/svg" width="693.333" height="693.333" viewBox="0 0 520.000000 520.000000"><path d="M240.8.5c-.1.1-3.4.6-7.3.9-3.8.3-8.1.8-9.5 1.1-1.4.3-4.3.8-6.5 1.1-12 1.5-42.2 9.9-52 14.3-1.1.6-6.3 2.8-11.5 5.1-8.5 3.8-11.9 5.5-23.7 12.1-4.8 2.7-16.7 10.2-17.3 10.9-.3.4-2.7 2.1-5.5 4-2.7 1.9-5.2 3.6-5.5 4-.3.3-1.4 1.3-2.6 2.1C93 60.4 68.7 83.5 63 90.6c-.8 1.1-3.3 4.1-5.5 6.9-2.2 2.7-4.3 5.2-4.6 5.5-.3.3-3.3 4.5-6.6 9.5-19.2 28.4-31.3 56-38.7 88.2C5 212 4.5 214.4 3.5 222.4c-.3 2.6-.9 6.9-1.2 9.5-.9 5.9-.9 44.8 0 52.5 1.1 10 1.9 14.6 2.7 15.1.5.3 1.9-1.2 3.1-3.2 1.3-2.1 2.5-4 2.8-4.3.4-.3 2.6-3.4 5-7 2.5-3.6 4.7-6.7 5.1-7 .3-.3 1.8-2.5 3.5-5 1.6-2.5 3.9-5.7 5-7.1 1.1-1.4 2.6-3.5 3.2-4.5.7-1 6.6-9.4 13-18.6 6.5-9.2 18.1-25.8 25.8-36.9 7.7-11 14.5-20.6 15-21.2.6-.7 3.7-5 6.8-9.7 3.2-4.7 7.8-11.2 10.3-14.5 2.4-3.3 4.8-7 5.4-8.3.5-1.2 1.4-2.2 2-2.2.5 0 1-.4 1-1 0-.8 3.6-6.2 10.3-15.2.6-.9 1.8-2.5 2.4-3.5 10.6-15.6 40.6-58.5 44.5-63.6 5.1-6.8 14.3-15.4 15.9-14.9.5.1.9-.1.9-.6 0-.4 1.2-1.2 2.8-1.9 17.7-7.7 33.5-5.6 48 6.5 3.4 2.9 7.9 8.5 12.8 16 4.2 6.5 9.8 15 12.5 19 2.7 4 4.9 7.7 4.9 8.2 0 .4.4 1 .8 1.2.4.1 2.8 3.2 5.2 6.8 2.5 3.6 5.1 7.1 5.8 7.8.6.7 1.2 1.6 1.2 2 0 .4 1.1 2 2.5 3.6s2.5 3.2 2.5 3.6c0 .3.8 1.5 1.8 2.6.9 1.1 2.2 2.7 2.7 3.6.6.9 5.5 8.1 11.1 16 5.5 7.8 11.8 16.9 14 20 4.1 6 6.3 7.4 8.7 5.4 1.3-.9 10.4-13.9 15.7-22.1 3-4.6 15.5-22.2 22.1-31.1 3.7-5 10.3-14.5 14.5-21 14.8-22.8 24.4-34.1 35-41.5l4.5-3.1-2.8-2.4c-3.8-3.4-16.3-11.8-24.9-16.9-8-4.8-18.4-9.8-31.9-15.5-7.8-3.2-31.6-10.7-37-11.5-1.7-.3-5.3-1-15.5-3-1.4-.3-4.7-.8-7.5-1.1-2.7-.3-6.1-.8-7.5-1.1-2.8-.5-46.6-1.3-47.2-.8zM479.2 128.8c-1.4 2.4-17.1 24.9-45.4 65.5-3.2 4.5-6.2 8.9-6.8 9.7-3.2 4.9-13.1 18.7-13.9 19.7-.6.7-1.1 1.7-1.1 2.3 0 .5-.4 1-.9 1s-1.2.8-1.5 1.7c-.3 1-1.7 3.1-3.1 4.8-1.3 1.6-2.9 3.5-3.3 4.1-.5.5-1.5 2.1-2.2 3.4-.7 1.3-1.7 2.9-2.1 3.4-3.3 4-10.1 14.1-11.7 17.3-1.7 3.3-1.8 4.2-.7 6.4.8 1.4 14.7 21.6 31.1 45 16.4 23.3 31.8 45.3 34.2 48.9 2.5 3.6 4.8 6.7 5.1 7 .3.3 1.1 1.2 1.6 2.1 2.9 4.8 9.1 13.4 9.7 13.7.5.2.8 1 .8 1.8s.3 1.4.8 1.4c.4 0 2.3 2.5 4.2 5.5 1.9 3 4 5.4 4.5 5.5 1 0 11.5-16.2 11.5-17.8 0-.4.9-1.8 2-3.2 1.1-1.4 2-3.3 2-4.3 0-.9.5-1.7 1-1.7.6 0 1-.5 1-1 0-.6.9-2.9 1.9-5.3 3.8-8.2 9.2-22.4 10.6-27.7.3-.8 1.6-5.8 3-11s2.7-10.6 3-12c.2-1.4.7-4.1 1-6 1.7-10 2.5-15.1 3.2-21.5.9-8.4 1-46.9.1-54-.4-2.8-.9-7.5-1.3-10.5-.3-3-.8-6.6-1.1-8-.4-1.4-.8-3.9-1.1-5.5-1.2-7.4-7.5-30.2-10.9-39.1-3.2-8.7-10.3-24.2-13.7-29.9-4.7-7.9-8.9-14.5-9.3-14.5-.2 0-1.2 1.3-2.2 2.8zM202.4 222.6c-4.6 5.7-8.8 10.9-9.5 11.4-.3.3-5.2 6.1-10.9 13s-10.7 12.7-11 13c-.3.3-2.1 2.5-4 5-1.9 2.4-4.2 5.2-5 6-.8.9-7.3 8.7-14.5 17.4-7.1 8.8-14 16.9-15.2 18.2-1.3 1.3-2.3 2.7-2.3 3.3 0 .5-.4 1.1-.9 1.3-.4.1-5.3 5.7-10.7 12.3-5.4 6.6-10.9 13.1-12 14.5-4.5 5.2-20.1 23.9-23.4 28-3.6 4.5-9.1 11.1-10 12-.3.3-2.3 2.7-4.5 5.4-2.1 2.7-4.8 6-6 7.2-7.1 7.7-13.2 16.7-13 19.1.2 2.8 2.3 6.3 7.9 12.8 16 18.8 27.6 30 48.9 47.1.9.8 2.1 1.4 2.6 1.4s1.1.3 1.3.8c.3.9 14.4 10.2 15.4 10.2.3 0 1.8.8 3.2 1.9 5.4 3.7 23.8 12.8 37 18.2 1.2.5 3.2 1.3 4.5 1.9 2.5 1.1 19.6 6.4 24.2 7.6 9.8 2.4 18.1 4.2 22.8 4.9 2.7.3 5.7.8 6.6 1 13.8 2.6 56.3 2.7 71.1.1 1.4-.2 5.9-1 10-1.6 4.1-.6 9.1-1.6 11-2 1.9-.5 4.6-1.1 6-1.3 12.7-2.3 42.2-13.5 59.2-22.5 10.6-5.6 28.3-17 33.1-21.2.5-.4-2-3.6-5.5-7.1-3.5-3.5-8.1-9-10.3-12.3-3.6-5.2-22.3-29.4-24.9-32.2-.6-.7-2.7-3.1-4.5-5.4-1.9-2.3-4-4.8-4.5-5.4-.6-.6-4.5-5.2-8.6-10.1-4.1-5-7.7-9.2-8-9.5-.5-.4-8.9-10.9-14-17.4-5.1-6.5-9.8-11.1-11.6-11.4-2.5-.3-5.2 2.8-15.4 17.8-5.6 8.1-24.2 34.9-25.2 36.2-.7 1-5.8 8.3-11.3 16.3-11.4 16.7-25.5 36.8-28.4 40.5-8 10.3-18.8 17.2-30.7 19.5-3.5.7-17 .7-20.3 0-13.3-2.7-22.8-8.4-30.3-18.5-2.5-3.3-8.8-15.1-9.3-17.4-.8-4.1-1.9-11.6-1.9-14.1-.2-5.6 4-22.5 5.6-22.5.5 0 .8-.6.8-1.2 0-1.1 12.5-20.5 14-21.8.3-.3 1.9-2.6 3.5-5.2 1.7-2.7 3.3-4.8 3.8-4.8.4 0 .7-.7.7-1.5s.5-1.5 1-1.5c.6 0 1-.7 1-1.5s.4-1.5.8-1.5c.5 0 1.5-1.2 2.3-2.8.8-1.5 1.7-2.9 2-3.2.3-.3 4.1-5.7 8.4-12 4.4-6.3 9.7-14 12-17.1 2.2-3.1 4.6-6.5 5.3-7.5.7-1.1 6.4-9.3 12.8-18.4 12.5-18 18.3-26.5 19.9-28.9.6-.9 1.3-1.8 1.6-2.1.3-.3 1.4-2 2.4-3.8 1.1-1.7 2.2-3.2 2.6-3.2.4 0 1.2-1.3 1.7-2.9.8-2.3.6-3.5-1-6.2-1.1-1.9-2.3-3.6-2.7-3.9-.4-.3-4.2-4.8-8.5-10s-8.8-10.6-10-12c-2.3-2.8-5.3-6.5-10.6-13.1-5.9-7.3-9.7-10.9-11.7-10.9-1.1 0-3.3 1.6-4.9 3.6z"/></svg>